<svg width="157" height="64" viewBox="0 0 157 64" fill="none" xmlns="http://www.w3.org/2000/svg">
<path fill-rule="evenodd" clip-rule="evenodd" d="M47.8081 30.8073C48.414 33.6975 48.1337 36.3858 47.1546 38.6275L47.2065 38.6267C46.3671 40.924 43.575 45.7306 37.0012 47.109C36.7511 47.1615 36.5013 47.203 36.2521 47.2342C35.625 47.3264 34.9744 47.3741 34.3028 47.3741C26.5176 47.3741 18.863 40.9656 17.2057 33.0603C16.4163 29.2947 17.13 25.8688 18.9354 23.3133C19.774 21.6991 24.1734 17.7843 27.7237 17.0236C27.8202 17.0029 27.913 16.9867 28.0022 16.9748C28.9402 16.7465 29.9407 16.626 30.9939 16.626C38.6382 16.626 46.1662 22.9752 47.8081 30.8073ZM45.132 30.1443C46.421 36.2929 42.5989 41.2773 36.595 41.2773C30.5912 41.2773 24.6792 36.2929 23.3902 30.1443C22.1012 23.9957 25.9234 19.0113 31.9272 19.0113C37.931 19.0113 43.843 23.9957 45.132 30.1443ZM36.2285 37.8316C40.6724 37.8316 43.5198 34.2301 42.5885 29.7875C41.6571 25.3448 37.2997 21.7434 32.8558 21.7434C28.412 21.7434 25.5645 25.3448 26.4959 29.7875C27.4272 34.2301 31.7847 37.8316 36.2285 37.8316ZM40.1871 29.454C40.7714 32.241 38.9366 34.5003 36.0891 34.5003C33.2415 34.5003 30.4595 32.241 29.8752 29.454C29.291 26.667 31.1257 24.4078 33.9733 24.4078C36.8208 24.4078 39.6029 26.667 40.1871 29.454ZM37.5762 29.4543C37.8645 30.8298 36.959 31.9448 35.5536 31.9448C34.1482 31.9448 32.7752 30.8298 32.4868 29.4543C32.1985 28.0788 33.104 26.9638 34.5094 26.9638C35.9148 26.9638 37.2878 28.0788 37.5762 29.4543Z" fill="black"/>
<path d="M68.4072 39.0464C68.4072 39.2233 68.5506 39.3667 68.7275 39.3667H71.1623C71.3392 39.3667 71.4826 39.2233 71.4826 39.0464V27.3528H68.7275C68.5506 27.3528 68.4072 27.4962 68.4072 27.6731V39.0464Z" fill="black"/>
<path d="M68.5063 25.45C68.8013 25.7598 69.2512 25.9146 69.8559 25.9146C70.4607 25.9146 70.9032 25.7598 71.1834 25.45C71.4637 25.1255 71.6038 24.7272 71.6038 24.2552C71.6038 23.7537 71.4637 23.3481 71.1834 23.0384C70.9032 22.7286 70.4607 22.5737 69.8559 22.5737C69.2512 22.5737 68.8013 22.7286 68.5063 23.0384C68.226 23.3481 68.0859 23.7537 68.0859 24.2552C68.0859 24.7272 68.226 25.1255 68.5063 25.45Z" fill="black"/>
<path fill-rule="evenodd" clip-rule="evenodd" d="M63.5594 33.7469C62.6154 34.1894 61.4649 34.4107 60.1079 34.4107H57.6741V39.0464C57.6741 39.2233 57.5307 39.3667 57.3538 39.3667H54.8526C54.6757 39.3667 54.5323 39.2233 54.5323 39.0464V23.425C54.5323 23.2481 54.6757 23.1047 54.8526 23.1047H57.3538C57.3884 23.1047 57.4217 23.1102 57.4529 23.1203C57.4841 23.1102 57.5173 23.1047 57.5519 23.1047H60.1079C61.4649 23.1047 62.6154 23.326 63.5594 23.7685C64.5182 24.211 65.2483 24.8452 65.7498 25.6713C66.2513 26.4825 66.5021 27.4486 66.5021 28.5697V28.9237C66.5021 30.0447 66.2513 31.0182 65.7498 31.8442C65.2483 32.6554 64.5182 33.2897 63.5594 33.7469ZM61.9664 26.2023C61.5387 25.9515 61.0076 25.8261 60.3734 25.8261H57.6741V31.6893H60.3734C61.0076 31.6893 61.5387 31.5639 61.9664 31.3132C62.4089 31.0624 62.7408 30.7158 62.962 30.2733C63.198 29.8308 63.316 29.3219 63.316 28.7467C63.316 28.1714 63.198 27.6625 62.962 27.22C62.7408 26.7775 62.4089 26.4383 61.9664 26.2023Z" fill="black"/>
<path d="M74.241 39.3667C74.0641 39.3667 73.9207 39.2233 73.9207 39.0464V27.6731C73.9207 27.4962 74.0641 27.3528 74.241 27.3528H76.0342C76.2111 27.3528 76.3545 27.4962 76.3545 27.6731V30.3133C76.4258 30.0052 76.5143 29.719 76.62 29.4547C76.9445 28.6287 77.4239 28.0091 78.0581 27.5961C78.7071 27.1831 79.511 26.9766 80.4698 26.9766H80.6025C82.0333 26.9766 83.1174 27.4413 83.8549 28.3705C84.5924 29.285 84.9612 30.6568 84.9612 32.4858V39.0464C84.9612 39.2233 84.8178 39.3667 84.6409 39.3667H82.2061C82.0292 39.3667 81.8858 39.2233 81.8858 39.0464V32.2203C81.8858 31.4828 81.6719 30.8854 81.2442 30.4282C80.8312 29.9709 80.2559 29.7423 79.5184 29.7423C78.7661 29.7423 78.154 29.9783 77.682 30.4503C77.2248 30.9075 76.9961 31.527 76.9961 32.3088V39.0464C76.9961 39.2233 76.8527 39.3667 76.6758 39.3667H74.241Z" fill="black"/>
<path fill-rule="evenodd" clip-rule="evenodd" d="M96.4317 33.7469C95.4877 34.1894 94.3372 34.4107 92.9802 34.4107H90.5464V39.0464C90.5464 39.2233 90.403 39.3667 90.2261 39.3667H87.7249C87.548 39.3667 87.4046 39.2233 87.4046 39.0464V23.425C87.4046 23.2481 87.548 23.1047 87.7249 23.1047H90.2261C90.2607 23.1047 90.294 23.1102 90.3252 23.1203C90.3563 23.1102 90.3896 23.1047 90.4242 23.1047H92.9802C94.3372 23.1047 95.4877 23.326 96.4317 23.7685C97.3905 24.211 98.1206 24.8452 98.6221 25.6713C99.1236 26.4825 99.3743 27.4486 99.3743 28.5697V28.9237C99.3743 30.0447 99.1236 31.0182 98.6221 31.8442C98.1206 32.6554 97.3905 33.2897 96.4317 33.7469ZM94.8387 26.2023C94.4109 25.9515 93.8799 25.8261 93.2457 25.8261H90.5464V31.6893H93.2457C93.8799 31.6893 94.4109 31.5639 94.8387 31.3132C95.2812 31.0624 95.6131 30.7158 95.8343 30.2733C96.0703 29.8308 96.1883 29.3219 96.1883 28.7467C96.1883 28.1714 96.0703 27.6625 95.8343 27.22C95.6131 26.7775 95.2812 26.4383 94.8387 26.2023Z" fill="black"/>
<path fill-rule="evenodd" clip-rule="evenodd" d="M106.22 39.7871C105.158 39.7871 104.221 39.6175 103.41 39.2782C102.599 38.939 101.913 38.4817 101.352 37.9065C100.792 37.3165 100.364 36.6527 100.069 35.9152C99.7886 35.1777 99.6485 34.4107 99.6485 33.6142V33.1496C99.6485 32.3236 99.796 31.5418 100.091 30.8043C100.401 30.052 100.836 29.3883 101.396 28.813C101.972 28.223 102.665 27.7658 103.476 27.4413C104.287 27.102 105.202 26.9324 106.22 26.9324C107.237 26.9324 108.152 27.102 108.963 27.4413C109.774 27.7658 110.46 28.223 111.021 28.813C111.596 29.3883 112.031 30.052 112.326 30.8043C112.621 31.5418 112.769 32.3236 112.769 33.1496V33.6142C112.769 34.4107 112.621 35.1777 112.326 35.9152C112.046 36.6527 111.626 37.3165 111.065 37.9065C110.505 38.4817 109.819 38.939 109.007 39.2782C108.196 39.6175 107.267 39.7871 106.22 39.7871ZM106.22 37.1542C106.972 37.1542 107.606 36.992 108.122 36.6675C108.639 36.3282 109.03 35.8783 109.295 35.3178C109.561 34.7426 109.693 34.0936 109.693 33.3708C109.693 32.6333 109.553 31.9843 109.273 31.4238C109.007 30.8485 108.609 30.3987 108.078 30.0742C107.562 29.7349 106.942 29.5653 106.22 29.5653C105.497 29.5653 104.87 29.7349 104.339 30.0742C103.823 30.3987 103.425 30.8485 103.144 31.4238C102.864 31.9843 102.724 32.6333 102.724 33.3708C102.724 34.0936 102.857 34.7426 103.122 35.3178C103.402 35.8783 103.801 36.3282 104.317 36.6675C104.833 36.992 105.467 37.1542 106.22 37.1542Z" fill="black"/>
<path d="M114.931 39.0464C114.931 39.2233 115.074 39.3667 115.251 39.3667H117.686C117.863 39.3667 118.006 39.2233 118.006 39.0464V27.3528H115.251C115.074 27.3528 114.931 27.4962 114.931 27.6731V39.0464Z" fill="black"/>
<path d="M115.03 25.45C115.325 25.7598 115.775 25.9146 116.379 25.9146C116.984 25.9146 117.427 25.7598 117.707 25.45C117.987 25.1255 118.127 24.7272 118.127 24.2552C118.127 23.7537 117.987 23.3481 117.707 23.0384C117.427 22.7286 116.984 22.5737 116.379 22.5737C115.775 22.5737 115.325 22.7286 115.03 23.0384C114.749 23.3481 114.609 23.7537 114.609 24.2552C114.609 24.7272 114.749 25.1255 115.03 25.45Z" fill="black"/>
<path d="M120.764 39.3667C120.587 39.3667 120.444 39.2233 120.444 39.0464V27.6731C120.444 27.4962 120.587 27.3528 120.764 27.3528H122.558C122.734 27.3528 122.878 27.4962 122.878 27.6731V30.3133C122.949 30.0052 123.038 29.719 123.143 29.4547C123.468 28.6287 123.947 28.0091 124.581 27.5961C125.23 27.1831 126.034 26.9766 126.993 26.9766H127.126C128.557 26.9766 129.641 27.4413 130.378 28.3705C131.116 29.285 131.485 30.6568 131.485 32.4858V39.0464C131.485 39.2233 131.341 39.3667 131.164 39.3667H128.729C128.553 39.3667 128.409 39.2233 128.409 39.0464V32.2203C128.409 31.4828 128.195 30.8854 127.768 30.4282C127.354 29.9709 126.779 29.7423 126.042 29.7423C125.289 29.7423 124.677 29.9783 124.205 30.4503C123.748 30.9075 123.519 31.527 123.519 32.3088V39.0464C123.519 39.2233 123.376 39.3667 123.199 39.3667H120.764Z" fill="black"/>
<path d="M136.163 39.1012C136.885 39.3815 137.8 39.5216 138.906 39.5216H140.312C140.488 39.5216 140.632 39.3782 140.632 39.2013V37.209C140.632 37.0321 140.488 36.8887 140.312 36.8887H138.751C138.161 36.8887 137.704 36.7338 137.38 36.4241C137.07 36.0996 136.915 35.6423 136.915 35.0523L136.926 29.6095H140.312C140.488 29.6095 140.632 29.4661 140.632 29.2892V27.6731C140.632 27.4962 140.488 27.3528 140.312 27.3528H136.93L136.936 24.2886C136.937 24.1114 136.793 23.9676 136.616 23.9676H134.38C134.204 23.9676 134.06 24.1106 134.06 24.2873L134.054 27.3528H132.456C132.279 27.3528 132.136 27.4962 132.136 27.6731V29.2892C132.136 29.4661 132.279 29.6095 132.456 29.6095H134.049L134.039 34.8532C134.039 36.0185 134.216 36.9477 134.57 37.641C134.924 38.3195 135.455 38.8062 136.163 39.1012Z" fill="black"/>
</svg>
