<svg width="115" height="64" viewBox="0 0 115 64" fill="none" xmlns="http://www.w3.org/2000/svg">
<path d="M31.8345 38.915C31.9614 40.4307 31.4484 41.9906 30.2937 43.1555C29.139 44.3205 27.5837 44.8472 26.0669 44.7337C25.94 43.2179 26.4529 41.658 27.6076 40.4931C28.7624 39.3281 30.3176 38.8014 31.8345 38.915Z" fill="black"/>
<path d="M29.0869 36.8086C27.5731 38.4275 25.3862 39.398 22.9986 39.2889C20.6113 39.1799 18.5221 38.0143 17.1622 36.2645C18.676 34.6457 20.8629 33.6752 23.2505 33.7842C25.6378 33.8933 27.727 35.0588 29.0869 36.8086Z" fill="black"/>
<path d="M16.2723 31.5987C16.5885 27.808 18.501 24.1743 21.8323 21.7808C25.1635 19.3874 29.2173 18.7342 32.9106 19.6438C32.5944 23.4345 30.6819 27.0682 27.3506 29.4617C24.0194 31.8551 19.9656 32.5083 16.2723 31.5987Z" fill="black"/>
<path d="M77.6786 26.9502V29.2585H79.0636V41.3264H81.5258V29.2585H84.7575V26.9502H81.5258V24.5882C81.5258 23.911 81.5874 23.3673 81.7105 22.9569C81.8336 22.5466 81.9977 22.2593 82.2029 22.0951C82.4286 21.9105 82.6954 21.8182 83.0031 21.8182C83.2493 21.8182 83.5059 21.8695 83.7726 21.972C84.0598 22.0541 84.306 22.2695 84.5113 22.6184L85.8654 20.5871C85.7218 20.3819 85.5167 20.1869 85.2499 20.0023C85.0037 19.8176 84.7062 19.6637 84.3574 19.5406C84.0085 19.4175 83.6084 19.356 83.157 19.356C82.2953 19.356 81.5566 19.5406 80.941 19.9099C80.346 20.2587 79.8843 20.7922 79.556 21.5104C79.2278 22.2285 79.0636 23.1518 79.0636 24.2803V26.9502H77.6786Z" fill="black"/>
<path d="M39.013 22.2442L39.013 41.3264H50.093V38.8641H41.6291V22.2442H39.013Z" fill="black"/>
<path fill-rule="evenodd" clip-rule="evenodd" d="M56.6546 41.6341C58.1729 41.6341 59.4861 41.3366 60.5942 40.7415C61.7227 40.126 62.6563 39.2231 63.3949 38.0331L61.3943 36.7712C60.8814 37.633 60.2556 38.2793 59.5169 38.7102C58.7783 39.1205 57.9267 39.3257 56.9624 39.3257C55.998 39.3257 55.1772 39.1205 54.5002 38.7102C53.8231 38.2998 53.3101 37.7048 52.9613 36.9251C52.6962 36.3326 52.5318 35.6452 52.4682 34.863H63.6103V34.586C63.6308 34.4219 63.6411 34.268 63.6411 34.1243C63.6411 32.6265 63.3743 31.3339 62.8409 30.2464C62.3074 29.1589 61.5379 28.3279 60.5326 27.7533C59.5477 27.1584 58.3576 26.8608 56.9624 26.8608C55.5672 26.8608 54.336 27.1686 53.269 27.7841C52.2226 28.3997 51.4019 29.2615 50.8068 30.3695C50.2323 31.4775 49.9451 32.7701 49.9451 34.2475C49.9451 35.7043 50.222 36.9866 50.7761 38.0946C51.3506 39.2026 52.1405 40.0747 53.1459 40.7108C54.1718 41.3264 55.3414 41.6341 56.6546 41.6341ZM52.992 31.3544C52.7954 31.7709 52.651 32.2428 52.5586 32.7701H60.9498C60.9024 32.0958 60.7325 31.5009 60.4402 30.985C60.1119 30.3695 59.6503 29.8873 59.0552 29.5385C58.4602 29.1897 57.7626 29.0152 56.9624 29.0152C56.0185 29.0152 55.208 29.2205 54.531 29.6308C53.8743 30.0206 53.3614 30.5952 52.992 31.3544Z" fill="black"/>
<path fill-rule="evenodd" clip-rule="evenodd" d="M73.6638 33.5641C73.2768 33.3102 72.7844 33.0867 72.1864 32.8932C71.5094 32.647 70.6579 32.5239 69.6319 32.5239C67.8878 32.5239 66.5234 32.9445 65.5385 33.7858C64.5741 34.6065 64.092 35.7043 64.092 37.079C64.092 38.0433 64.3177 38.8641 64.769 39.5412C65.2205 40.2183 65.8155 40.7415 66.5542 41.1108C67.3134 41.4597 68.1238 41.6341 68.9856 41.6341C69.7653 41.6341 70.545 41.4905 71.3247 41.2032C72.1249 40.9159 72.7918 40.4748 73.3253 39.8798C73.4528 39.7428 73.5656 39.5976 73.6638 39.4443V41.3264H76.126V31.1697C76.126 30.2464 75.89 29.4667 75.4182 28.8306C74.9667 28.1946 74.3204 27.7123 73.4792 27.3841C72.6584 27.0352 71.694 26.8608 70.586 26.8608C69.2729 26.8608 68.1443 27.0558 67.2005 27.4456C66.2772 27.8354 65.5488 28.2253 65.0152 28.6151L66.2156 30.431C66.4413 30.2669 66.7491 30.0719 67.139 29.8462C67.5288 29.6205 68.0007 29.4256 68.5547 29.2615C69.1292 29.0973 69.7653 29.0152 70.463 29.0152C70.8938 29.0152 71.3042 29.0563 71.694 29.1384C72.0838 29.2205 72.4225 29.3538 72.7097 29.5385C73.0174 29.7231 73.2534 29.9796 73.4176 30.3079C73.5817 30.6157 73.6638 31.0158 73.6638 31.5083V33.5641ZM66.9542 35.6325C66.708 36.0018 66.5849 36.443 66.5849 36.9559C66.5849 37.4894 66.708 37.951 66.9542 38.3409C67.2211 38.7307 67.5801 39.0282 68.0315 39.2334C68.5034 39.4181 69.0369 39.5105 69.6319 39.5105C70.3911 39.5105 71.0682 39.3565 71.6633 39.0487C72.2788 38.741 72.761 38.3101 73.1098 37.7561C73.4792 37.1815 73.6638 36.525 73.6638 35.7863V35.2538C73.2695 35.062 72.8695 34.9112 72.4635 34.8014C71.7043 34.5758 70.8938 34.4629 70.032 34.4629C69.2319 34.4629 68.5752 34.5655 68.0622 34.7707C67.5698 34.9758 67.2005 35.2631 66.9542 35.6325Z" fill="black"/>
<path fill-rule="evenodd" clip-rule="evenodd" d="M95.4414 40.7415C94.3334 41.3366 93.0202 41.6341 91.5018 41.6341C90.1887 41.6341 89.0191 41.3264 87.9932 40.7108C86.9878 40.0747 86.1978 39.2026 85.6233 38.0946C85.0693 36.9866 84.7924 35.7043 84.7924 34.2475C84.7924 32.7701 85.0796 31.4775 85.6541 30.3695C86.2491 29.2615 87.0699 28.3997 88.1163 27.7841C89.1833 27.1686 90.4144 26.8608 91.8096 26.8608C93.2049 26.8608 94.3949 27.1584 95.3798 27.7533C96.3852 28.3279 97.1547 29.1589 97.6881 30.2464C98.2217 31.3339 98.4884 32.6265 98.4884 34.1243C98.4884 34.268 98.4781 34.4219 98.4576 34.586V34.863H87.3155C87.3791 35.6452 87.5434 36.3326 87.8086 36.9251C88.1574 37.7048 88.6703 38.2998 89.3474 38.7102C90.0245 39.1205 90.8452 39.3257 91.8096 39.3257C92.7739 39.3257 93.6255 39.1205 94.3642 38.7102C95.1029 38.2793 95.7286 37.633 96.2416 36.7712L98.2422 38.0331C97.5035 39.2231 96.5699 40.126 95.4414 40.7415ZM87.4059 32.7701C87.4982 32.2428 87.6427 31.7709 87.8393 31.3544C88.2086 30.5952 88.7216 30.0206 89.3782 29.6308C90.0553 29.2205 90.8658 29.0152 91.8096 29.0152C92.6098 29.0152 93.3075 29.1897 93.9025 29.5385C94.4975 29.8873 94.9592 30.3695 95.2875 30.985C95.5798 31.5009 95.7497 32.0958 95.797 32.7701H87.4059Z" fill="black"/>
</svg>
